<svg width="50" height="50" viewBox="0 0 50 50" fill="none" xmlns="http://www.w3.org/2000/svg">
<path d="M6.25 25H8.33333M25 6.25V8.33333M41.6667 25H43.75M11.6667 11.6667L13.125 13.125M38.3333 11.6667L36.875 13.125" stroke="#F8FD06" stroke-width="2" stroke-linecap="round" stroke-linejoin="round"/>
<path d="M18.7502 33.3333C17.0011 32.0215 15.7092 30.1927 15.0573 28.1058C14.4054 26.019 14.4267 23.78 15.118 21.7059C15.8094 19.6318 17.1358 17.8278 18.9094 16.5495C20.683 15.2711 22.8139 14.5833 25.0002 14.5833C27.1864 14.5833 29.3173 15.2711 31.0909 16.5495C32.8645 17.8278 34.1909 19.6318 34.8823 21.7059C35.5736 23.78 35.5949 26.019 34.943 28.1058C34.2911 30.1927 32.9992 32.0215 31.2502 33.3333C30.4368 34.1384 29.8243 35.1238 29.4624 36.2095C29.1005 37.2953 28.9992 38.4511 29.1668 39.5833C29.1668 40.6883 28.7278 41.7481 27.9464 42.5295C27.165 43.3109 26.1052 43.7499 25.0002 43.7499C23.8951 43.7499 22.8353 43.3109 22.0539 42.5295C21.2725 41.7481 20.8335 40.6883 20.8335 39.5833C21.0011 38.4511 20.8999 37.2953 20.5379 36.2095C20.176 35.1238 19.5636 34.1384 18.7502 33.3333Z" stroke="#F8FD06" stroke-width="2" stroke-linecap="round" stroke-linejoin="round"/>
<path d="M20.2085 35.4167H29.7918" stroke="#F8FD06" stroke-width="2" stroke-linecap="round" stroke-linejoin="round"/>
</svg>
