<svg width="50" height="50" viewBox="0 0 50 50" fill="none" xmlns="http://www.w3.org/2000/svg">
<path d="M22.9165 25C22.9165 25.5525 23.136 26.0824 23.5267 26.4731C23.9174 26.8638 24.4473 27.0833 24.9998 27.0833C25.5524 27.0833 26.0823 26.8638 26.473 26.4731C26.8637 26.0824 27.0832 25.5525 27.0832 25C27.0832 24.4474 26.8637 23.9175 26.473 23.5268C26.0823 23.1361 25.5524 22.9166 24.9998 22.9166C24.4473 22.9166 23.9174 23.1361 23.5267 23.5268C23.136 23.9175 22.9165 24.4474 22.9165 25Z" stroke="#F8FD06" stroke-width="2" stroke-linecap="round" stroke-linejoin="round"/>
<path d="M14.5835 25C14.5835 27.7627 15.681 30.4122 17.6345 32.3657C19.588 34.3192 22.2375 35.4167 25.0002 35.4167C27.7628 35.4167 30.4124 34.3192 32.3659 32.3657C34.3194 30.4122 35.4168 27.7627 35.4168 25C35.4168 22.2374 34.3194 19.5878 32.3659 17.6343C30.4124 15.6808 27.7628 14.5834 25.0002 14.5834C22.2375 14.5834 19.588 15.6808 17.6345 17.6343C15.681 19.5878 14.5835 22.2374 14.5835 25Z" stroke="#F8FD06" stroke-width="2" stroke-linecap="round" stroke-linejoin="round"/>
<path d="M33.125 41.8959V41.9167" stroke="#F8FD06" stroke-width="2" stroke-linecap="round" stroke-linejoin="round"/>
<path d="M39.6665 36.6875V36.7083" stroke="#F8FD06" stroke-width="2" stroke-linecap="round" stroke-linejoin="round"/>
<path d="M43.271 29.1666V29.1875" stroke="#F8FD06" stroke-width="2" stroke-linecap="round" stroke-linejoin="round"/>
<path d="M43.271 20.8334V20.8542" stroke="#F8FD06" stroke-width="2" stroke-linecap="round" stroke-linejoin="round"/>
<path d="M39.6665 13.3125V13.3333" stroke="#F8FD06" stroke-width="2" stroke-linecap="round" stroke-linejoin="round"/>
<path d="M33.125 8.10413V8.12496" stroke="#F8FD06" stroke-width="2" stroke-linecap="round" stroke-linejoin="round"/>
<path d="M25 6.25V6.27083" stroke="#F8FD06" stroke-width="2" stroke-linecap="round" stroke-linejoin="round"/>
<path d="M16.875 8.10413V8.12496" stroke="#F8FD06" stroke-width="2" stroke-linecap="round" stroke-linejoin="round"/>
<path d="M10.3335 13.3125V13.3333" stroke="#F8FD06" stroke-width="2" stroke-linecap="round" stroke-linejoin="round"/>
<path d="M6.729 20.8334V20.8542" stroke="#F8FD06" stroke-width="2" stroke-linecap="round" stroke-linejoin="round"/>
<path d="M6.729 29.1666V29.1875" stroke="#F8FD06" stroke-width="2" stroke-linecap="round" stroke-linejoin="round"/>
<path d="M10.3335 36.6875V36.7083" stroke="#F8FD06" stroke-width="2" stroke-linecap="round" stroke-linejoin="round"/>
<path d="M16.875 41.8959V41.9167" stroke="#F8FD06" stroke-width="2" stroke-linecap="round" stroke-linejoin="round"/>
<path d="M25 43.75V43.7708" stroke="#F8FD06" stroke-width="2" stroke-linecap="round" stroke-linejoin="round"/>
</svg>
