<svg width="120" height="37" viewBox="0 0 120 37" fill="none" xmlns="http://www.w3.org/2000/svg">
<path d="M9.26367 23.8086C11.6191 19.8711 14.1035 16.0156 16.7168 12.2422C16.7988 12.125 16.8516 12.0371 16.875 11.9785C16.9102 11.9082 16.9219 11.8613 16.9102 11.8379C16.9102 11.8027 16.8984 11.7734 16.875 11.75C16.8516 11.7266 16.834 11.6914 16.8223 11.6445C16.8105 11.5859 16.8164 11.498 16.8398 11.3809C17.1328 10.4199 17.6953 9.66992 18.5273 9.13086C18.6914 9.02539 18.8379 9.01367 18.9668 9.0957C19.1074 9.16602 19.2188 9.27148 19.3008 9.41211C19.3711 9.55273 19.3242 9.79883 19.1602 10.1504C18.9961 10.502 18.791 10.8711 18.5449 11.2578C18.3105 11.6445 18.1172 11.9492 17.9648 12.1719C17.9062 12.2539 17.8652 12.3184 17.8418 12.3652C17.1504 13.3848 16.4648 14.3984 15.7852 15.4062C13.957 18.0664 12.1641 20.7617 10.4062 23.4922C10.3242 23.6094 10.2539 23.709 10.1953 23.791C10.0898 23.9434 10.0488 24.0254 10.0723 24.0371C10.0957 24.0605 10.2129 24.0195 10.4238 23.9141C10.4707 23.8906 10.5234 23.8672 10.582 23.8438C12.6445 22.9531 14.8594 21.9277 17.2266 20.7676C19.5938 19.6074 21.873 18.3477 24.0645 16.9883C26.2676 15.6289 28.1426 14.1992 29.6895 12.6992C30.5684 11.8203 31.2891 10.8711 31.8516 9.85156C32.4141 8.82031 32.7129 7.83594 32.748 6.89844C32.7832 5.96094 32.4434 5.18164 31.7285 4.56055C31.0137 3.92773 29.8125 3.56445 28.125 3.4707C25.9336 3.43555 23.1797 3.89844 19.8633 4.85938C16.5469 5.82031 13.3535 7.06836 10.2832 8.60352C7.21289 10.127 4.96289 11.7207 3.5332 13.3848C3.11133 13.877 2.87695 14.3633 2.83008 14.8438C2.79492 15.3125 3.08203 15.7344 3.69141 16.1094C3.83203 16.1914 3.9375 16.209 4.00781 16.1621C4.07812 16.1152 4.13086 16.0508 4.16602 15.9688C4.20117 15.9102 4.23633 15.8633 4.27148 15.8281C4.30664 15.7812 4.35352 15.7637 4.41211 15.7754C4.4707 15.7754 4.54688 15.8105 4.64062 15.8809C4.88672 16.0918 5.02734 16.3379 5.0625 16.6191C5.10938 16.8887 5.0625 17.1113 4.92188 17.2871C4.78125 17.4629 4.55859 17.5098 4.25391 17.4277C3 16.9824 2.24414 16.3613 1.98633 15.5645C1.74023 14.7559 2.03906 13.8242 2.88281 12.7695C4.38281 11.0352 6.69727 9.37695 9.82617 7.79492C12.9668 6.21289 16.2305 4.92969 19.6172 3.94531C23.0156 2.94922 25.8633 2.47461 28.1602 2.52148C30.082 2.61523 31.4707 3.03125 32.3262 3.76953C33.1934 4.49609 33.6328 5.41016 33.6445 6.51172C33.6562 7.60156 33.3574 8.74414 32.748 9.93945C32.1387 11.1348 31.3242 12.248 30.3047 13.2793C28.6523 14.8965 26.6777 16.4258 24.3809 17.8672C22.084 19.3086 19.6934 20.6211 17.209 21.8047C14.7246 22.9883 12.375 24.0078 10.1602 24.8633C9.89062 24.9688 9.68555 25.0566 9.54492 25.127C9.4043 25.209 9.28711 25.3086 9.19336 25.4258C9.09961 25.543 8.99414 25.707 8.87695 25.918C8.83008 25.9883 8.7832 26.0645 8.73633 26.1465C8.50195 26.5332 8.26172 26.9258 8.01562 27.3242C7.125 28.7188 6.30469 30.1426 5.55469 31.5957C5.35547 31.9355 5.17383 32.0703 5.00977 32C4.8457 31.9297 4.83984 31.7129 4.99219 31.3496C5.89453 29.5801 6.85547 27.8398 7.875 26.1289C8.00391 25.9062 8.06836 25.7715 8.06836 25.7246C8.06836 25.6777 7.96875 25.6953 7.76953 25.7773C5.41406 26.6445 3.01758 27.3711 0.580078 27.957C0.369141 27.9922 0.216797 27.9746 0.123047 27.9043C0.0410156 27.8457 0.0234375 27.7637 0.0703125 27.6582C0.128906 27.5527 0.257812 27.4766 0.457031 27.4297C1.69922 27.125 2.93555 26.7559 4.16602 26.3223C5.4082 25.8887 6.62109 25.4375 7.80469 24.9688C7.94531 24.9102 8.06836 24.8633 8.17383 24.8281C8.36133 24.7578 8.50195 24.6992 8.5957 24.6523C8.70117 24.6055 8.78906 24.5293 8.85938 24.4238C8.92969 24.3301 9.0293 24.1836 9.1582 23.9844C9.18164 23.9258 9.2168 23.8672 9.26367 23.8086ZM31.9029 15.7402C32.1959 15.5762 32.4478 15.5938 32.6588 15.793C32.8697 15.9805 32.9634 16.2148 32.94 16.4961C32.9283 16.7773 32.7408 16.9766 32.3775 17.0938C31.9673 17.2344 31.5338 17.6504 31.0767 18.3418C30.6197 19.0332 30.2213 19.7773 29.8814 20.5742C29.5533 21.3594 29.3599 21.9746 29.3013 22.4199C29.2427 23.3105 29.4068 23.7441 29.7935 23.7207C30.1802 23.6973 30.8365 23.3223 31.7623 22.5957C32.688 21.8691 33.7134 21.0195 34.8384 20.0469C35.9517 19.0742 37.0005 18.207 37.9849 17.4453C38.9693 16.6719 39.7076 16.2266 40.1998 16.1094C40.856 16.1797 41.1724 16.3848 41.149 16.7246C41.1255 17.0527 40.9908 17.4277 40.7447 17.8496C40.7095 17.9082 40.6744 17.9727 40.6392 18.043C40.1705 18.9453 39.6314 19.8184 39.022 20.6621C38.7759 21.0254 38.5357 21.3887 38.3013 21.752C38.0084 22.209 37.7213 22.6777 37.44 23.1582C37.2408 23.498 37.0357 23.832 36.8248 24.1602C36.7896 24.2188 36.7545 24.2773 36.7193 24.3359C36.6255 24.4648 36.5377 24.5996 36.4556 24.7402C36.3853 24.8809 36.3736 25.0156 36.4205 25.1445C36.4556 25.332 36.4029 25.4785 36.2623 25.584C35.9576 25.8066 35.7349 26.0117 35.5943 26.1992C35.4537 26.3867 35.3248 26.5977 35.2076 26.832C35.1138 27.0195 34.9849 27.2422 34.8209 27.5C34.692 27.7227 34.4986 28.0508 34.2408 28.4844C33.7134 29.3984 33.0513 30.4883 32.2545 31.7539C31.4693 33.0312 30.6783 34.1387 29.8814 35.0762C29.0963 36.0137 28.4517 36.4414 27.9478 36.3594C27.7017 36.2891 27.5728 36.1309 27.5611 35.8848C27.5377 35.6504 27.567 35.3984 27.649 35.1289C27.731 34.8594 27.813 34.6309 27.8951 34.4434C27.9068 34.4082 27.9185 34.373 27.9302 34.3379C28.5748 32.791 29.4888 31.291 30.6724 29.8379C31.856 28.3848 33.0865 27.125 34.3638 26.0586C34.6216 25.8477 34.815 25.6484 34.9439 25.4609C35.0845 25.2852 35.231 25.0742 35.3834 24.8281C35.4185 24.7695 35.4537 24.7168 35.4888 24.6699L38.9869 19.0625C39.608 18.0664 39.8541 17.5215 39.7252 17.4277C39.5963 17.334 39.2154 17.5391 38.5826 18.043C37.9498 18.5352 37.1822 19.1738 36.2798 19.959C35.108 20.9668 33.942 21.9219 32.7818 22.8242C31.6216 23.7266 30.7076 24.2539 30.0396 24.4062C29.4888 24.5 29.0435 24.377 28.7037 24.0371C28.3755 23.709 28.2525 23.0762 28.3345 22.1387C28.4869 20.9902 28.9088 19.8359 29.6002 18.6758C30.3033 17.5156 31.0709 16.5371 31.9029 15.7402ZM30.1802 33.0195C30.192 32.9961 30.2213 32.9551 30.2681 32.8965C30.4205 32.6621 30.6607 32.2988 30.9888 31.8066C31.317 31.3262 31.6509 30.8164 31.9908 30.2773C32.3423 29.75 32.6236 29.2988 32.8345 28.9238C33.0455 28.5605 33.1099 28.3848 33.0279 28.3965C32.9224 28.4434 32.6763 28.7188 32.2896 29.2227C31.9029 29.7266 31.4634 30.3242 30.9713 31.0156C30.4908 31.707 30.0513 32.3574 29.6529 32.9668C29.2545 33.5762 28.9908 34.0098 28.8619 34.2676C28.6392 34.8184 28.5279 35.1523 28.5279 35.2695C28.5279 35.3867 28.5982 35.3574 28.7388 35.1816C28.8795 35.0176 29.0494 34.7832 29.2486 34.4785C29.4595 34.1855 29.647 33.8984 29.8111 33.6172C29.9869 33.3359 30.1099 33.1367 30.1802 33.0195ZM43.1515 11.1875C43.128 11.293 43.0402 11.3516 42.8878 11.3633C42.7355 11.3633 42.5714 11.3281 42.3956 11.2578C42.2198 11.1875 42.0909 11.0996 42.0089 10.9941C41.9269 10.877 41.9503 10.7539 42.0792 10.625C42.2081 10.4961 42.4952 10.373 42.9405 10.2559C45.1554 9.88086 47.3292 9.55859 49.462 9.28906C49.8722 9.24219 50.1827 9.19531 50.3937 9.14844C50.6163 9.10156 50.7863 9.02539 50.9034 8.91992C51.0323 8.80273 51.1613 8.62109 51.2902 8.375C51.5011 8.01172 51.7179 7.64844 51.9405 7.28516C51.9874 7.20312 52.0343 7.12109 52.0812 7.03906C53.8976 4.00391 55.128 2.19336 55.7726 1.60742C56.7804 0.681641 57.214 0.833984 57.0734 2.06445C56.839 3.66992 56.0187 5.66211 54.6124 8.04102C54.6124 8.05273 54.6066 8.07031 54.5948 8.09375C54.3839 8.42188 54.2843 8.62109 54.296 8.69141C54.3077 8.76172 54.4425 8.7793 54.7003 8.74414C54.7472 8.74414 54.7882 8.74414 54.8234 8.74414C54.9523 8.73242 55.0812 8.72656 55.2101 8.72656C58.128 8.53906 61.128 8.45703 64.2101 8.48047C64.4093 8.48047 64.5382 8.52734 64.5968 8.62109C64.6554 8.70312 64.6495 8.78516 64.5792 8.86719C64.5089 8.9375 64.3683 8.9668 64.1573 8.95508C60.8527 8.89648 57.6476 9.04883 54.5421 9.41211C54.4366 9.42383 54.3429 9.43555 54.2609 9.44727C54.0851 9.44727 53.9445 9.4707 53.839 9.51758C53.7335 9.56445 53.6222 9.68164 53.505 9.86914C52.0402 12.1191 50.505 14.2344 48.8995 16.2148C47.3058 18.1953 45.9757 19.6719 44.9093 20.6445C44.8507 20.7031 44.8038 20.7441 44.7687 20.7676C44.7335 20.791 44.7042 20.8086 44.6808 20.8203C44.6573 20.832 44.6339 20.8496 44.6105 20.873C44.587 20.8965 44.5577 20.9316 44.5226 20.9785C44.4874 21.0254 44.4405 21.1016 44.382 21.207C41.7804 25.3555 39.1613 29.4922 36.5245 33.6172C36.7355 33.6172 36.8351 33.6934 36.8234 33.8457C36.7999 34.0098 36.7062 34.1562 36.5421 34.2852C36.0265 34.6719 35.6691 34.7891 35.4698 34.6367C35.2706 34.4844 35.2823 34.1504 35.505 33.6348C36.1144 32.6738 36.7238 31.7188 37.3331 30.7695C41.587 24.1602 45.7706 17.4805 49.8839 10.7305C49.9308 10.6367 49.9777 10.5547 50.0245 10.4844C50.1652 10.2852 50.2296 10.1504 50.2179 10.0801C50.2179 9.99805 50.0773 9.98047 49.796 10.0273C47.6163 10.3438 45.4015 10.6953 43.1515 11.082C43.1515 11.1172 43.1515 11.1523 43.1515 11.1875ZM52.3273 8.30469C52.2101 8.50391 52.128 8.66797 52.0812 8.79688C52.0343 8.92578 52.0636 8.98438 52.1691 8.97266C52.3448 8.94922 52.5206 8.93164 52.6964 8.91992C52.8136 8.91992 52.9073 8.9082 52.9777 8.88477C53.048 8.86133 53.1124 8.81445 53.171 8.74414C53.2296 8.66211 53.3058 8.54492 53.3995 8.39258C54.7003 6.16602 55.6027 4.19727 56.1066 2.48633C55.4738 3.18945 54.378 4.85352 52.8195 7.47852C52.7491 7.5957 52.6788 7.71289 52.6085 7.83008C52.5148 7.98242 52.421 8.14062 52.3273 8.30469ZM51.2198 10.1504C50.8214 10.8066 50.4054 11.498 49.9718 12.2246C48.9288 14.0293 47.8155 15.834 46.632 17.6387C46.0226 18.5527 46.0636 18.6289 46.755 17.8672C48.5245 15.8047 50.3585 13.2793 52.257 10.291C52.3859 10.0684 52.4738 9.91602 52.5206 9.83398C52.5675 9.74023 52.5675 9.6875 52.5206 9.67578C52.4855 9.65234 52.4093 9.64648 52.2921 9.6582C52.2804 9.6582 52.2628 9.6582 52.2394 9.6582C52.2159 9.66992 52.1866 9.67578 52.1515 9.67578C51.9523 9.6875 51.7765 9.72266 51.6241 9.78125C51.4718 9.82812 51.337 9.95117 51.2198 10.1504ZM50.6032 20.627C50.6032 20.627 50.6091 20.6211 50.6208 20.6094C50.6911 20.5508 50.861 20.3926 51.1305 20.1348L59.7087 6.35352C60.3415 5.95508 60.7575 5.85547 60.9567 6.05469C61.1559 6.24219 61.2204 6.59375 61.1501 7.10938C61.0915 7.61328 60.9743 8.12891 60.7985 8.65625C60.6227 9.18359 60.4762 9.58203 60.3591 9.85156C59.6208 11.4336 58.6481 13.0039 57.4411 14.5625C56.2341 16.1094 55.068 17.4688 53.943 18.6406C52.818 19.8125 52.0153 20.6152 51.5348 21.0488L50.4977 22.6133C50.193 23.0586 50.1052 23.2461 50.2341 23.1758C50.363 23.1172 50.6266 22.9062 51.0251 22.543C51.9626 21.6641 52.9762 20.75 54.0661 19.8008C55.1677 18.8516 56.193 18.0664 57.1423 17.4453C58.1032 16.8125 58.8415 16.543 59.3571 16.6367C60.0368 16.8125 60.1833 17.5977 59.7966 18.9922C59.5153 20.0938 59.3923 20.9258 59.4274 21.4883C59.4743 22.0508 59.6325 22.373 59.902 22.4551C60.6286 22.6426 61.947 22.1738 63.8571 21.0488C63.9743 20.9785 64.0739 20.9727 64.1559 21.0312C64.2497 21.0898 64.2907 21.1777 64.279 21.2949C64.279 21.4004 64.2028 21.5059 64.0505 21.6113C63.0309 22.2559 62.152 22.7246 61.4137 23.0176C60.6872 23.3105 60.0837 23.3809 59.6032 23.2285C58.5134 22.9355 58.3434 21.4062 59.0934 18.6406C59.3278 17.7148 59.2165 17.3047 58.7595 17.4102C58.3024 17.5156 57.6462 17.9258 56.7907 18.6406C55.9352 19.3438 55.0212 20.1523 54.0485 21.0664C52.9352 22.0977 51.9333 22.9707 51.0427 23.6855C50.152 24.4004 49.5661 24.6699 49.2848 24.4941C49.0856 24.3535 49.0036 24.1543 49.0387 23.8965C49.0739 23.6504 49.1677 23.3867 49.32 23.1055C49.4606 22.8242 49.5954 22.584 49.7243 22.3848C49.7712 22.3145 49.8122 22.25 49.8473 22.1914L50.2516 21.541C50.3571 21.3301 50.4216 21.1426 50.445 20.9785C50.4684 20.8262 50.5212 20.709 50.6032 20.627ZM55.5602 14.8262C54.0251 17.1348 54.1481 17.1758 55.9294 14.9492C57.1598 13.5195 58.1852 12.0371 59.0055 10.502C59.486 9.56445 59.7497 8.99023 59.7966 8.7793C59.8552 8.56836 59.7614 8.61523 59.5153 8.91992C59.2692 9.22461 58.9411 9.67578 58.5309 10.2734C58.1325 10.8711 57.7165 11.5039 57.2829 12.1719C56.8493 12.8281 56.4743 13.4082 56.1579 13.9121C55.8532 14.3809 55.654 14.6855 55.5602 14.8262ZM74.385 20.6094C74.7014 20.4453 74.8889 20.4336 74.9475 20.5742C75.0061 20.7148 74.8948 20.8848 74.6135 21.084C74.1682 21.3535 73.594 21.6172 72.8909 21.875C72.1995 22.1211 71.5784 22.1973 71.0276 22.1035C70.4768 21.998 70.1897 21.5527 70.1663 20.7676V20.6797C70.178 20.5156 70.1663 20.4336 70.1311 20.4336C70.0959 20.4219 69.9963 20.4688 69.8323 20.5742C68.0159 21.7578 66.6799 22.4961 65.8245 22.7891C64.9807 23.082 64.4827 23.0938 64.3303 22.8242C64.1428 22.4492 64.3772 21.8691 65.0334 21.084C65.6897 20.2871 66.5334 19.5312 67.5647 18.8164C68.6077 18.1016 69.6038 17.6738 70.553 17.5332C71.5022 17.3809 72.1702 17.7559 72.5569 18.6582C72.592 18.7754 72.5745 18.8809 72.5041 18.9746C72.4338 19.0684 72.3401 19.1328 72.2229 19.168C72.1057 19.2031 71.9709 19.1797 71.8186 19.0977C71.678 19.0156 71.5784 18.916 71.5198 18.7988C71.5198 18.7754 71.5256 18.752 71.5373 18.7285C71.5491 18.7051 71.5608 18.6816 71.5725 18.6582C71.5842 18.6348 71.5959 18.6113 71.6077 18.5879C71.6194 18.5645 71.6194 18.541 71.6077 18.5176C71.3147 18.1191 70.8108 18.0605 70.0959 18.3418C69.3811 18.623 68.6252 19.0625 67.8284 19.6602C67.0315 20.2578 66.3577 20.8262 65.8069 21.3652C65.2561 21.8926 64.9983 22.2148 65.0334 22.332C65.0803 22.4492 65.5432 22.2559 66.4221 21.752C67.301 21.248 68.7424 20.3047 70.7463 18.9219C70.8518 18.8633 70.9573 18.8457 71.0627 18.8691C71.1799 18.8809 71.2737 18.9395 71.344 19.0449C71.426 19.1855 71.4319 19.3262 71.3616 19.4668C70.9163 20.4277 70.8635 21.0195 71.2034 21.2422C71.5549 21.4648 72.053 21.4824 72.6975 21.2949C73.3538 21.1074 73.9163 20.8789 74.385 20.6094ZM82.6102 22.209C82.7039 22.2207 82.8738 22.1094 83.1199 21.875C83.3777 21.6289 83.6766 21.3242 84.0164 20.9609C84.5789 20.3516 85.159 19.7773 85.7566 19.2383C86.366 18.6992 86.8758 18.4238 87.2859 18.4121C87.6727 18.4707 87.8895 18.6934 87.9363 19.0801C87.9949 19.4551 88.0008 19.8711 87.9539 20.3281C87.9187 20.6211 87.9012 20.8906 87.9012 21.1367C87.9129 21.3711 87.9715 21.541 88.077 21.6465C88.2762 21.8457 89.0379 21.5527 90.3621 20.7676C90.5262 20.6738 90.6551 20.6445 90.7488 20.6797C90.8543 20.7148 90.8953 20.7852 90.8719 20.8906C90.8602 20.9961 90.7547 21.1074 90.5555 21.2246C89.6883 21.7637 89.0203 22.1094 88.5516 22.2617C88.0828 22.4023 87.7195 22.3555 87.4617 22.1211C87.0281 21.6992 86.8699 20.9551 86.9871 19.8887C86.9988 19.6426 86.9695 19.5254 86.8992 19.5371C86.8406 19.5371 86.7059 19.625 86.4949 19.8008C86.4715 19.8242 86.448 19.8418 86.4246 19.8535C86.073 20.1465 85.6746 20.5098 85.2293 20.9434C84.6785 21.4824 84.1453 21.957 83.6297 22.3672C83.1258 22.7656 82.7215 22.918 82.4168 22.8242C82.0066 22.6484 81.7957 22.3145 81.784 21.8223C81.7723 21.3301 81.8602 20.7969 82.0477 20.2227C82.2469 19.6367 82.4461 19.1152 82.6453 18.6582C82.7391 18.4238 82.8152 18.2305 82.8738 18.0781C82.9559 17.7852 82.8152 17.75 82.452 17.9727C82.0887 18.1953 81.6141 18.5527 81.0281 19.0449C80.4422 19.5254 79.8562 20.0293 79.2703 20.5566C78.6961 21.0723 78.2332 21.4883 77.8816 21.8047C77.6824 21.9805 77.5594 22.0977 77.5125 22.1562C77.4539 22.2031 77.366 22.2734 77.2488 22.3672C77.0262 22.5781 76.7449 22.8242 76.4051 23.1055C76.0652 23.3984 75.7371 23.6445 75.4207 23.8438C75.1043 24.043 74.8641 24.1133 74.7 24.0547C74.3484 23.8672 74.3074 23.498 74.577 22.9473C75.2801 21.5176 76.0887 20.1816 77.0027 18.9395C77.4715 18.2715 77.9227 17.5977 78.3562 16.918C78.368 16.8945 78.3738 16.877 78.3738 16.8652C78.3738 16.8535 78.3621 16.8359 78.3387 16.8125C78.3387 16.8125 78.3328 16.8066 78.3211 16.7949C78.2391 16.7129 78.2098 16.625 78.2332 16.5312C78.2566 16.4375 78.3152 16.3379 78.409 16.2324C78.4676 16.1738 78.573 16.0918 78.7254 15.9863C78.8895 15.8809 79.0535 15.8105 79.2176 15.7754C79.3816 15.7285 79.4988 15.7637 79.5691 15.8809C79.6395 15.998 79.6102 16.2441 79.4812 16.6191C78.7547 17.9199 77.9285 19.2324 77.0027 20.5566C76.7918 20.873 76.5867 21.1836 76.3875 21.4883C76.1062 21.9102 76.0008 22.1094 76.0711 22.0859C76.1414 22.0625 76.3289 21.916 76.6336 21.6465C76.7156 21.5762 76.7977 21.5059 76.8797 21.4355C77.6648 20.7441 78.4852 20.0469 79.3406 19.3438C80.2078 18.6289 80.9988 18.0488 81.7137 17.6035C82.4285 17.1465 82.9617 16.9648 83.3133 17.0586C83.7937 17.2812 83.8816 17.8438 83.577 18.7461C83.5535 18.8047 83.5125 18.9102 83.4539 19.0625C83.3484 19.3789 83.2078 19.7773 83.032 20.2578C82.868 20.7383 82.7332 21.1777 82.6277 21.5762C82.534 21.9629 82.5281 22.1738 82.6102 22.209ZM95.9505 14.9141C96.267 14.9375 96.4134 15.0371 96.39 15.2129C96.3666 15.377 96.2494 15.5469 96.0384 15.7227C95.8392 15.8867 95.6224 15.998 95.388 16.0566C95.1654 16.1035 95.0013 16.0273 94.8959 15.8281C94.8724 15.7695 94.8783 15.7168 94.9134 15.6699C94.9603 15.6113 95.0189 15.5645 95.0892 15.5293C95.1712 15.4824 95.2416 15.4414 95.3002 15.4062C95.347 15.3945 95.3822 15.3828 95.4056 15.3711C95.4291 15.3594 95.4408 15.3477 95.4408 15.3359C95.4525 15.207 95.5052 15.1016 95.599 15.0195C95.6927 14.9375 95.8099 14.9023 95.9505 14.9141ZM92.0306 23.2637C91.5736 23.2637 91.3041 23.1172 91.222 22.8242C91.14 22.5312 91.181 22.1621 91.3451 21.7168C91.4974 21.2598 91.7142 20.7852 91.9955 20.293C92.2767 19.7891 92.558 19.332 92.8392 18.9219C93.1205 18.5 93.3431 18.1777 93.5072 17.9551C93.5541 17.873 93.5951 17.8145 93.6302 17.7793C93.5599 17.5918 93.6244 17.3867 93.8236 17.1641C94.0228 16.9297 94.2572 16.7598 94.5267 16.6543C94.7962 16.5371 94.9896 16.5547 95.1068 16.707C95.1888 16.8359 95.2064 16.959 95.1595 17.0762C95.1127 17.1934 95.0482 17.3047 94.9662 17.4102C94.9427 17.4336 94.9193 17.4629 94.8959 17.498C94.4505 18.1309 93.9642 18.8398 93.4369 19.625C92.9212 20.3984 92.5345 21.0488 92.2767 21.5762C92.0775 22.0332 92.2005 22.2852 92.6459 22.332C93.1029 22.3789 93.6888 22.3086 94.4037 22.1211C95.1302 21.9336 95.7923 21.7344 96.39 21.5234C96.9994 21.3008 97.3627 21.1543 97.4798 21.084C97.6087 21.0137 97.7084 21.002 97.7787 21.0488C97.8607 21.0957 97.8959 21.1719 97.8841 21.2773C97.8724 21.3711 97.7904 21.4707 97.638 21.5762C96.8763 21.998 95.8802 22.3848 94.6498 22.7363C93.431 23.0879 92.558 23.2637 92.0306 23.2637ZM101.205 18.834C100.713 19.3262 100.215 19.9941 99.7109 20.8379C99.2187 21.6699 98.9374 22.3145 98.8671 22.7715C98.8671 23.0762 99.1308 23.1582 99.6581 23.0176C100.197 22.8887 100.83 22.6543 101.557 22.3145C102.295 21.9629 102.951 21.623 103.525 21.2949C104.111 20.9668 104.445 20.7676 104.527 20.6973C104.703 20.5684 104.844 20.5156 104.949 20.5391C105.055 20.5625 105.107 20.6211 105.107 20.7148C105.107 20.8086 105.049 20.9082 104.932 21.0137C104.603 21.2832 104.018 21.6641 103.174 22.1562C102.33 22.6484 101.457 23.0645 100.555 23.4043C99.6523 23.7441 98.955 23.8145 98.4628 23.6152C97.9589 23.416 97.8945 22.7656 98.2695 21.6641C98.5859 20.832 99.1249 19.9414 99.8866 18.9922C100.648 18.0312 101.34 17.4629 101.961 17.2871C102.242 17.2402 102.471 17.2871 102.646 17.4277C102.834 17.5684 102.951 17.7559 102.998 17.9902C102.951 18.248 102.84 18.4531 102.664 18.6055C102.488 18.7461 102.307 18.8281 102.119 18.8516C101.932 18.875 101.797 18.8281 101.715 18.7109C101.703 18.6758 101.691 18.6465 101.68 18.623C101.668 18.5762 101.65 18.5469 101.627 18.5352C101.603 18.5117 101.557 18.5234 101.486 18.5703C101.428 18.6172 101.334 18.7051 101.205 18.834ZM103.418 26.8672C103.278 26.9961 103.137 27.0195 102.997 26.9375C102.856 26.8672 102.756 26.7441 102.698 26.5684C102.627 26.3926 102.639 26.2227 102.733 26.0586C102.791 25.9297 103.875 24.166 105.985 20.7676C105.997 20.709 106.026 20.6504 106.073 20.5918C106.12 20.5215 106.166 20.4629 106.213 20.416C107.643 18.1074 109.184 15.6699 110.836 13.1035C112.489 10.5254 113.989 8.27539 115.336 6.35352C116.684 4.43164 117.604 3.29492 118.096 2.94336C118.577 2.82617 118.87 2.89062 118.975 3.13672C119.092 3.38281 119.098 3.7168 118.993 4.13867C118.899 4.54883 118.77 4.94727 118.606 5.33398C118.454 5.70898 118.342 5.9668 118.272 6.10742C117.346 7.9707 115.905 10.25 113.948 12.9453C112.002 15.6406 109.694 18.2539 107.022 20.7852C106.647 21.3828 106.295 21.9336 105.967 22.4375C105.545 23.0703 105.264 23.5273 105.124 23.8086C104.971 24.0898 105.083 24.0898 105.458 23.8086C105.821 23.5391 106.571 22.8828 107.708 21.8398C110.93 18.8398 113.291 17.0762 114.791 16.5488C115.026 16.4902 115.178 16.5195 115.249 16.6367C115.331 16.7422 115.389 16.8828 115.424 17.0586C115.436 17.082 115.442 17.1113 115.442 17.1465C115.489 17.5215 115.161 17.9316 114.458 18.377C113.754 18.8105 113.016 19.209 112.243 19.5723C111.833 19.7715 111.493 19.9473 111.223 20.0996C111.024 20.2637 110.877 20.4219 110.784 20.5742C110.702 20.7266 110.614 20.9375 110.52 21.207C110.333 21.6758 110.168 22.2266 110.028 22.8594C109.887 23.4805 109.905 24.0254 110.081 24.4941C110.256 24.9629 110.731 25.1914 111.504 25.1797C111.645 25.168 111.75 25.1973 111.821 25.2676C111.903 25.3379 111.92 25.4141 111.874 25.4961C111.827 25.5781 111.692 25.6309 111.469 25.6543C110.297 25.6895 109.547 25.4023 109.219 24.793C108.891 24.1836 108.868 23.3926 109.149 22.4199C109.254 22.0449 109.278 21.8457 109.219 21.8223C109.172 21.7871 108.991 21.916 108.674 22.209C107.854 22.959 106.963 23.75 106.002 24.582C105.053 25.4258 104.321 26.0703 103.805 26.5156C103.583 26.7148 103.454 26.832 103.418 26.8672ZM110.291 15.582C109.776 16.3672 109.483 16.8477 109.413 17.0234C109.354 17.1875 109.67 16.8594 110.362 16.0391C111.991 14.1289 113.385 12.3066 114.545 10.5723C115.706 8.82617 116.608 7.30859 117.252 6.01953C117.499 5.52734 117.663 5.17578 117.745 4.96484C117.827 4.75391 117.844 4.64844 117.797 4.64844C117.762 4.64844 117.686 4.71875 117.569 4.85938C117.463 4.98828 117.334 5.1582 117.182 5.36914C117.03 5.58008 116.877 5.79102 116.725 6.00195C116.655 6.0957 116.59 6.18359 116.532 6.26562C114.75 8.75 112.67 11.8555 110.291 15.582Z" fill="white"/>
</svg>
